<?xml version="1.0" encoding="iso-8859-1"?>
<!-- Generator: Adobe Illustrator 16.0.0, SVG Export Plug-In . SVG Version: 6.00 Build 0)  -->
<!DOCTYPE svg PUBLIC "-//W3C//DTD SVG 1.1//EN" "http://www.w3.org/Graphics/SVG/1.1/DTD/svg11.dtd">
<svg version="1.1" id="Capa_1" xmlns="http://www.w3.org/2000/svg" xmlns:xlink="http://www.w3.org/1999/xlink" x="0px" y="0px"
	 width="113.405px" height="113.405px" viewBox="0 0 113.405 113.405" style="enable-background:new 0 0 113.405 113.405;"
	 xml:space="preserve">
<g>
	<path d="M111.733,10.138c-1.013-0.417-2.156-0.19-2.942,0.578L84.08,35.302L58.611,9.819c-1.052-1.047-2.771-1.047-3.817,0
		l-25.516,25.51L4.611,10.715c-0.783-0.772-1.933-1-2.942-0.578S0,11.543,0,12.632v79.531c0,1.487,1.216,2.7,2.7,2.7h27.432
		c0.177,0.047,0.377,0.068,0.578,0.068c0,0,0,0,0.011,0l79.984-0.085c1.482,0,2.7-1.207,2.7-2.7V12.632
		C113.405,11.543,112.751,10.56,111.733,10.138z M108.005,89.448l-76.641,0.073c-0.19-0.053-0.379-0.073-0.572-0.073H5.411V19.139
		l21.977,21.925c1.055,1.041,2.766,1.047,3.818,0l25.5-25.511l25.471,25.479c1.055,1.047,2.769,1.042,3.812,0l22.017-21.903V89.448z
		 M48.529,35.189c1.055,1.047,1.055,2.764,0,3.818L31.211,56.325c-1.052,1.05-2.764,1.045-3.818,0L16.205,45.151v18.594
		c0,1.492-1.215,2.7-2.7,2.7c-1.485,0-2.7-1.208-2.7-2.7V38.651c0-1.091,0.659-2.085,1.669-2.497
		c1.015-0.408,2.17-0.182,2.942,0.572L29.305,50.58l15.411-15.412C45.771,34.119,47.477,34.119,48.529,35.189z M113.405,101.671
		c0,1.487-1.218,2.7-2.7,2.7h-108c-1.484,0-2.7-1.213-2.7-2.7c0-1.492,1.215-2.7,2.7-2.7h108
		C112.188,98.971,113.405,100.179,113.405,101.671z"/>
</g>
<g>
</g>
<g>
</g>
<g>
</g>
<g>
</g>
<g>
</g>
<g>
</g>
<g>
</g>
<g>
</g>
<g>
</g>
<g>
</g>
<g>
</g>
<g>
</g>
<g>
</g>
<g>
</g>
<g>
</g>
</svg>
